<?xml version="1.0" encoding="UTF-8"?>
<!DOCTYPE svg PUBLIC "-//W3C//DTD SVG 1.1//EN" "http://www.w3.org/Graphics/SVG/1.1/DTD/svg11.dtd">
<svg xmlns="http://www.w3.org/2000/svg" version="1.1" width="2667px" height="2667px" style="shape-rendering:geometricPrecision; text-rendering:geometricPrecision; image-rendering:optimizeQuality; fill-rule:evenodd; clip-rule:evenodd" xmlns:xlink="http://www.w3.org/1999/xlink">
<g><path style="opacity:1" fill="#00bc9b" d="M -0.5,-0.5 C 888.5,-0.5 1777.5,-0.5 2666.5,-0.5C 2666.5,888.5 2666.5,1777.5 2666.5,2666.5C 2419.5,2666.5 2172.5,2666.5 1925.5,2666.5C 1925.5,2666.17 1925.5,2665.83 1925.5,2665.5C 1941.83,2665.5 1958.17,2665.5 1974.5,2665.5C 1959.58,2627.65 1944.08,2589.99 1928,2552.5C 1919.19,2533.55 1909.86,2514.89 1900,2496.5C 1866.6,2447.03 1843.6,2393.03 1831,2334.5C 1820.43,2289.41 1814.1,2243.75 1812,2197.5C 1811.06,2135.49 1811.39,2073.49 1813,2011.5C 1821.59,1945.62 1831.59,1879.96 1843,1814.5C 1844.49,1805.05 1846.49,1795.72 1849,1786.5C 1863.61,1752 1878.61,1717.67 1894,1683.5C 1900.46,1668.13 1906.12,1652.46 1911,1636.5C 1921.25,1587.9 1931.25,1539.23 1941,1490.5C 1947.43,1450.51 1953.76,1410.51 1960,1370.5C 1963.67,1322.1 1963.01,1273.77 1958,1225.5C 1955.05,1207.37 1950.38,1189.71 1944,1172.5C 1927.33,1132.5 1910.67,1092.5 1894,1052.5C 1877.66,1014.81 1857.99,979.141 1835,945.5C 1816.5,920.333 1794.67,898.5 1769.5,880C 1746.99,864.236 1723.32,850.236 1698.5,838C 1663.33,823.501 1627,812.834 1589.5,806C 1550.56,798.343 1511.56,791.009 1472.5,784C 1428.1,776.388 1383.44,774.055 1338.5,777C 1330.77,779.466 1323.1,782.133 1315.5,785C 1231.38,819.593 1147.05,853.593 1062.5,887C 1052.18,891.824 1042.18,897.158 1032.5,903C 987.564,937.923 944.398,975.089 903,1014.5C 886.952,1034.21 871.285,1054.21 856,1074.5C 834,1105.83 812,1137.17 790,1168.5C 780.46,1181.04 769.294,1191.87 756.5,1201C 749.187,1204.66 741.52,1207.33 733.5,1209C 649.013,1223.9 564.013,1234.9 478.5,1242C 448.861,1245.1 419.861,1251.1 391.5,1260C 386.508,1262.16 381.841,1264.83 377.5,1268C 348.583,1292.91 327.583,1323.24 314.5,1359C 315.186,1364.39 316.686,1369.56 319,1374.5C 323.91,1384.66 329.577,1394.33 336,1403.5C 338.537,1406.37 341.37,1408.87 344.5,1411C 350.079,1412.92 355.746,1414.58 361.5,1416C 409.644,1423.14 457.644,1431.14 505.5,1440C 554.316,1446.2 603.316,1450.2 652.5,1452C 708.832,1453.05 765.165,1454.05 821.5,1455C 854.974,1456.16 887.307,1462.83 918.5,1475C 1000.52,1510.18 1080.18,1549.84 1157.5,1594C 1175.01,1605.18 1191.68,1617.51 1207.5,1631C 1220.54,1642.24 1229.71,1656.07 1235,1672.5C 1243.68,1698.9 1249.68,1725.9 1253,1753.5C 1255.08,1780.19 1257.42,1806.86 1260,1833.5C 1267.44,1858.9 1268.44,1884.57 1263,1910.5C 1260.34,1919.82 1257.68,1929.15 1255,1938.5C 1238.96,1985.29 1220.96,2031.29 1201,2076.5C 1198.27,2083.36 1195.93,2090.36 1194,2097.5C 1180.75,2153.98 1170.42,2210.98 1163,2268.5C 1158.15,2354.8 1157.48,2441.14 1161,2527.5C 1163.14,2552.55 1167.48,2577.22 1174,2601.5C 1181.01,2623.37 1188.51,2645.03 1196.5,2666.5C 797.5,2666.5 398.5,2666.5 -0.5,2666.5C -0.5,1777.5 -0.5,888.5 -0.5,-0.5 Z"/></g>
<g><path style="opacity:1" fill="#000000" d="M 1925.5,2665.5 C 1910.56,2665.9 1895.73,2665.24 1881,2663.5C 1850.95,2595.07 1822.29,2526.07 1795,2456.5C 1777.94,2411.59 1764.6,2365.59 1755,2318.5C 1748.65,2269.75 1741.65,2221.08 1734,2172.5C 1726.82,2120.51 1726.82,2068.51 1734,2016.5C 1738.87,1979.5 1745.53,1942.83 1754,1906.5C 1762.01,1879.46 1771.01,1852.8 1781,1826.5C 1805.33,1763.17 1829.67,1699.83 1854,1636.5C 1863.6,1604.69 1870.94,1572.36 1876,1539.5C 1877.89,1521.72 1878.73,1503.88 1878.5,1486C 1877.54,1424.81 1875.71,1363.64 1873,1302.5C 1871.28,1266.68 1866.28,1231.34 1858,1196.5C 1844.08,1162.4 1830.74,1128.07 1818,1093.5C 1797.93,1043.68 1772.93,996.676 1743,952.5C 1725.09,928.585 1703.92,908.085 1679.5,891C 1638.39,862.282 1593.39,841.949 1544.5,830C 1498.26,820.586 1451.93,811.752 1405.5,803.5C 1325.85,836.992 1245.51,868.826 1164.5,899C 1147.74,905.876 1132.07,914.543 1117.5,925C 1074.3,957.514 1033.47,993.014 995,1031.5C 973.195,1056.3 952.528,1081.97 933,1108.5C 914.39,1136.11 895.39,1163.44 876,1190.5C 860.604,1211.12 840.438,1224.62 815.5,1231C 801.016,1234.9 786.35,1237.9 771.5,1240C 721.888,1247.37 672.222,1254.37 622.5,1261C 586.518,1264.54 550.518,1267.87 514.5,1271C 503.041,1272.69 491.707,1275.03 480.5,1278C 459.753,1291.41 442.253,1308.25 428,1328.5C 421.167,1339.5 414.333,1350.5 407.5,1361.5C 412.413,1370.99 417.58,1380.33 423,1389.5C 425.892,1392.06 429.059,1394.22 432.5,1396C 469.409,1402.74 506.409,1409.08 543.5,1415C 568.693,1418.98 594.026,1421.65 619.5,1423C 670.491,1424.18 721.491,1424.84 772.5,1425C 820.142,1424.85 867.475,1428.52 914.5,1436C 963.754,1446.42 1011.09,1462.42 1056.5,1484C 1107.48,1507.66 1157.82,1532.66 1207.5,1559C 1236.69,1574.2 1263.69,1592.54 1288.5,1614C 1300.82,1624.98 1311.65,1637.14 1321,1650.5C 1326.82,1661.78 1330.16,1673.78 1331,1686.5C 1335.5,1752.1 1338.16,1817.77 1339,1883.5C 1333.08,1920.91 1321.75,1956.58 1305,1990.5C 1279.06,2038.31 1261.06,2088.97 1251,2142.5C 1247.83,2169.89 1244.16,2197.22 1240,2224.5C 1235.34,2245.16 1230.67,2265.83 1226,2286.5C 1220.11,2332.49 1220.11,2378.49 1226,2424.5C 1231.05,2461.8 1237.72,2498.8 1246,2535.5C 1258.74,2579.9 1273.58,2623.57 1290.5,2666.5C 1259.17,2666.5 1227.83,2666.5 1196.5,2666.5C 1188.51,2645.03 1181.01,2623.37 1174,2601.5C 1167.48,2577.22 1163.14,2552.55 1161,2527.5C 1157.48,2441.14 1158.15,2354.8 1163,2268.5C 1170.42,2210.98 1180.75,2153.98 1194,2097.5C 1195.93,2090.36 1198.27,2083.36 1201,2076.5C 1220.96,2031.29 1238.96,1985.29 1255,1938.5C 1257.68,1929.15 1260.34,1919.82 1263,1910.5C 1268.44,1884.57 1267.44,1858.9 1260,1833.5C 1257.42,1806.86 1255.08,1780.19 1253,1753.5C 1249.68,1725.9 1243.68,1698.9 1235,1672.5C 1229.71,1656.07 1220.54,1642.24 1207.5,1631C 1191.68,1617.51 1175.01,1605.18 1157.5,1594C 1080.18,1549.84 1000.52,1510.18 918.5,1475C 887.307,1462.83 854.974,1456.16 821.5,1455C 765.165,1454.05 708.832,1453.05 652.5,1452C 603.316,1450.2 554.316,1446.2 505.5,1440C 457.644,1431.14 409.644,1423.14 361.5,1416C 355.746,1414.58 350.079,1412.92 344.5,1411C 341.37,1408.87 338.537,1406.37 336,1403.5C 329.577,1394.33 323.91,1384.66 319,1374.5C 316.686,1369.56 315.186,1364.39 314.5,1359C 327.583,1323.24 348.583,1292.91 377.5,1268C 381.841,1264.83 386.508,1262.16 391.5,1260C 419.861,1251.1 448.861,1245.1 478.5,1242C 564.013,1234.9 649.013,1223.9 733.5,1209C 741.52,1207.33 749.187,1204.66 756.5,1201C 769.294,1191.87 780.46,1181.04 790,1168.5C 812,1137.17 834,1105.83 856,1074.5C 871.285,1054.21 886.952,1034.21 903,1014.5C 944.398,975.089 987.564,937.923 1032.5,903C 1042.18,897.158 1052.18,891.824 1062.5,887C 1147.05,853.593 1231.38,819.593 1315.5,785C 1323.1,782.133 1330.77,779.466 1338.5,777C 1383.44,774.055 1428.1,776.388 1472.5,784C 1511.56,791.009 1550.56,798.343 1589.5,806C 1627,812.834 1663.33,823.501 1698.5,838C 1723.32,850.236 1746.99,864.236 1769.5,880C 1794.67,898.5 1816.5,920.333 1835,945.5C 1857.99,979.141 1877.66,1014.81 1894,1052.5C 1910.67,1092.5 1927.33,1132.5 1944,1172.5C 1950.38,1189.71 1955.05,1207.37 1958,1225.5C 1963.01,1273.77 1963.67,1322.1 1960,1370.5C 1953.76,1410.51 1947.43,1450.51 1941,1490.5C 1931.25,1539.23 1921.25,1587.9 1911,1636.5C 1906.12,1652.46 1900.46,1668.13 1894,1683.5C 1878.61,1717.67 1863.61,1752 1849,1786.5C 1846.49,1795.72 1844.49,1805.05 1843,1814.5C 1831.59,1879.96 1821.59,1945.62 1813,2011.5C 1811.39,2073.49 1811.06,2135.49 1812,2197.5C 1814.1,2243.75 1820.43,2289.41 1831,2334.5C 1843.6,2393.03 1866.6,2447.03 1900,2496.5C 1909.86,2514.89 1919.19,2533.55 1928,2552.5C 1944.08,2589.99 1959.58,2627.65 1974.5,2665.5C 1958.17,2665.5 1941.83,2665.5 1925.5,2665.5 Z"/></g>
<g><path style="opacity:1" fill="#fefefe" d="M 1925.5,2665.5 C 1925.5,2665.83 1925.5,2666.17 1925.5,2666.5C 1713.83,2666.5 1502.17,2666.5 1290.5,2666.5C 1273.58,2623.57 1258.74,2579.9 1246,2535.5C 1237.72,2498.8 1231.05,2461.8 1226,2424.5C 1220.11,2378.49 1220.11,2332.49 1226,2286.5C 1230.67,2265.83 1235.34,2245.16 1240,2224.5C 1244.16,2197.22 1247.83,2169.89 1251,2142.5C 1261.06,2088.97 1279.06,2038.31 1305,1990.5C 1321.75,1956.58 1333.08,1920.91 1339,1883.5C 1338.16,1817.77 1335.5,1752.1 1331,1686.5C 1330.16,1673.78 1326.82,1661.78 1321,1650.5C 1311.65,1637.14 1300.82,1624.98 1288.5,1614C 1263.69,1592.54 1236.69,1574.2 1207.5,1559C 1157.82,1532.66 1107.48,1507.66 1056.5,1484C 1011.09,1462.42 963.754,1446.42 914.5,1436C 867.475,1428.52 820.142,1424.85 772.5,1425C 721.491,1424.84 670.491,1424.18 619.5,1423C 594.026,1421.65 568.693,1418.98 543.5,1415C 506.409,1409.08 469.409,1402.74 432.5,1396C 429.059,1394.22 425.892,1392.06 423,1389.5C 417.58,1380.33 412.413,1370.99 407.5,1361.5C 414.333,1350.5 421.167,1339.5 428,1328.5C 442.253,1308.25 459.753,1291.41 480.5,1278C 491.707,1275.03 503.041,1272.69 514.5,1271C 550.518,1267.87 586.518,1264.54 622.5,1261C 672.222,1254.37 721.888,1247.37 771.5,1240C 786.35,1237.9 801.016,1234.9 815.5,1231C 840.438,1224.62 860.604,1211.12 876,1190.5C 895.39,1163.44 914.39,1136.11 933,1108.5C 952.528,1081.97 973.195,1056.3 995,1031.5C 1033.47,993.014 1074.3,957.514 1117.5,925C 1132.07,914.543 1147.74,905.876 1164.5,899C 1245.51,868.826 1325.85,836.992 1405.5,803.5C 1451.93,811.752 1498.26,820.586 1544.5,830C 1593.39,841.949 1638.39,862.282 1679.5,891C 1703.92,908.085 1725.09,928.585 1743,952.5C 1772.93,996.676 1797.93,1043.68 1818,1093.5C 1830.74,1128.07 1844.08,1162.4 1858,1196.5C 1866.28,1231.34 1871.28,1266.68 1873,1302.5C 1875.71,1363.64 1877.54,1424.81 1878.5,1486C 1878.73,1503.88 1877.89,1521.72 1876,1539.5C 1870.94,1572.36 1863.6,1604.69 1854,1636.5C 1829.67,1699.83 1805.33,1763.17 1781,1826.5C 1771.01,1852.8 1762.01,1879.46 1754,1906.5C 1745.53,1942.83 1738.87,1979.5 1734,2016.5C 1726.82,2068.51 1726.82,2120.51 1734,2172.5C 1741.65,2221.08 1748.65,2269.75 1755,2318.5C 1764.6,2365.59 1777.94,2411.59 1795,2456.5C 1822.29,2526.07 1850.95,2595.07 1881,2663.5C 1895.73,2665.24 1910.56,2665.9 1925.5,2665.5 Z"/></g>
<g><path style="opacity:1" fill="#010101" d="M 1277.5,1258.5 C 1303.36,1258.28 1329.03,1260.45 1354.5,1265C 1361.03,1265.92 1367.36,1267.59 1373.5,1270C 1377.79,1272.29 1380.62,1275.79 1382,1280.5C 1384.87,1283.7 1388.04,1286.54 1391.5,1289C 1403.79,1295.15 1415.79,1301.81 1427.5,1309C 1434.19,1315.92 1433.86,1322.59 1426.5,1329C 1410.72,1339.72 1393.72,1348.06 1375.5,1354C 1342.14,1356.16 1308.81,1355.83 1275.5,1353C 1270.01,1352.29 1264.68,1350.96 1259.5,1349C 1234.4,1337.45 1209.07,1326.45 1183.5,1316C 1181,1314.83 1179.17,1313 1178,1310.5C 1175.69,1303.98 1176.02,1297.65 1179,1291.5C 1187.19,1285.82 1196.03,1281.32 1205.5,1278C 1219.39,1272.93 1233.39,1268.26 1247.5,1264C 1257.58,1261.82 1267.58,1259.98 1277.5,1258.5 Z"/></g>
</svg>
